<?xml version="1.0" standalone="no"?>
<!DOCTYPE svg PUBLIC "-//W3C//DTD SVG 20010904//EN"
 "http://www.w3.org/TR/2001/REC-SVG-20010904/DTD/svg10.dtd">
<svg version="1.0" xmlns="http://www.w3.org/2000/svg"
 width="96.000000pt" height="96.000000pt" viewBox="0 0 96.000000 96.000000"
 preserveAspectRatio="xMidYMid meet">
<metadata>
Created by potrace 1.11, written by Peter Selinger 2001-2013
</metadata>
<g transform="translate(0.000000,96.000000) scale(0.100000,-0.100000)"
fill="#000000" stroke="none">
<path d="M278 478 l-195 -313 199 -3 c109 -1 287 -1 396 0 l199 3 -194 310
c-106 171 -197 311 -201 313 -5 1 -96 -138 -204 -310z m327 -30 c66 -105 122
-195 123 -200 2 -4 -110 -8 -248 -8 -138 0 -250 4 -248 8 8 20 243 392 248
392 3 0 59 -86 125 -192z"/>
</g>
</svg>
