<?xml version="1.0" standalone="no"?>
<!DOCTYPE svg PUBLIC "-//W3C//DTD SVG 20010904//EN"
 "http://www.w3.org/TR/2001/REC-SVG-20010904/DTD/svg10.dtd">
<svg version="1.0" xmlns="http://www.w3.org/2000/svg"
 width="535.000000pt" height="535.000000pt" viewBox="0 0 535.000000 535.000000"
 preserveAspectRatio="xMidYMid meet">
<metadata>
Created by potrace 1.11, written by Peter Selinger 2001-2013
</metadata>
<g transform="translate(0.000000,535.000000) scale(0.100000,-0.100000)"
fill="#000000" stroke="none">
<path d="M2135 5328 c-3 -7 -6 -44 -7 -82 l-3 -70 -68 3 c-39 1 -74 -2 -82 -9
-9 -7 -99 -12 -272 -13 l-258 -2 -3 -87 -3 -88 -89 0 -90 0 0 -90 0 -90 -180
0 -180 0 0 -90 0 -90 -87 0 -88 0 1 -77 c1 -43 -1 -84 -4 -90 -3 -9 -30 -13
-88 -13 l-84 0 0 -168 c0 -117 -4 -172 -12 -180 -7 -7 -43 -12 -90 -12 l-77 0
-3 -82 -3 -83 -87 -3 -88 -3 -2 -267 -3 -267 -88 -3 -87 -3 2 -697 3 -697 80
0 80 0 3 257 2 258 84 0 84 0 0 -138 c1 -75 1 -156 1 -179 l1 -43 174 0 c96 0
177 4 180 9 3 4 6 45 7 89 l1 81 87 3 86 3 3 177 2 178 85 0 85 0 0 -180 0
-180 263 6 c144 3 268 7 275 10 9 3 12 82 12 353 l0 350 87 3 87 3 0 85 1 85
85 0 85 0 3 88 3 87 84 0 85 0 2 -262 3 -263 87 -3 88 -3 2 -177 3 -177 267
-3 268 -2 2 537 3 538 85 0 85 0 3 -532 2 -533 268 -2 267 -3 0 -83 0 -82 268
0 268 0 1 78 c1 42 1 160 2 262 l1 185 -87 3 -88 3 0 440 0 440 83 -3 82 -3 2
-259 c1 -142 5 -261 8 -265 4 -3 41 -6 83 -6 l77 0 7 -245 c4 -135 9 -254 10
-265 3 -18 11 -20 83 -20 l80 0 5 -265 5 -265 86 -3 86 -3 6 -136 c4 -75 7
-315 7 -534 0 -337 -2 -398 -14 -402 -8 -3 -47 -4 -86 -2 -50 3 -72 1 -75 -8
-2 -6 -6 -83 -9 -169 l-5 -158 85 0 84 0 0 85 0 85 28 2 c15 1 54 2 87 3 l60
2 3 176 2 176 88 3 87 3 3 88 3 87 84 0 85 0 2 263 3 262 93 3 92 3 0 704 0
705 -90 0 -90 0 -2 268 -3 267 -85 5 -85 5 -3 83 -3 82 -72 1 c-40 1 -79 2
-87 3 -13 1 -15 29 -18 179 l-2 177 -85 0 -84 0 -3 88 -3 87 -87 3 -88 3 0 84
c0 49 -4 86 -10 86 -5 1 -14 3 -20 4 -5 1 -82 3 -170 4 l-159 1 -3 88 -3 87
-85 5 -85 5 -5 83 -5 84 -190 -1 c-104 -1 -223 2 -262 5 l-73 6 0 84 0 84
-620 0 c-488 0 -622 -3 -625 -12z m-365 -693 l0 -175 -170 0 -170 0 0 85 0 84
88 3 87 3 2 80 c1 44 2 83 2 88 1 4 37 7 81 7 l80 0 0 -175z m898 83 l3 -87
85 -3 85 -3 2 -257 2 -258 -352 0 -353 0 0 343 c0 189 3 347 7 350 4 4 122 6
262 5 l256 -3 3 -87z m-1248 -353 l0 -85 -90 0 -90 0 0 -90 0 -90 -90 0 -90 0
0 -90 0 -89 -42 1 c-24 0 -64 0 -90 -1 l-48 -1 0 -85 0 -85 -85 0 -85 0 2 173
3 172 87 3 87 3 3 87 3 87 88 3 87 3 0 84 0 85 175 0 175 0 0 -85z m2850 6 l0
-79 -81 -4 c-44 -2 -81 -2 -82 -1 -1 1 -1 38 1 82 l4 81 79 0 79 0 0 -79z
m-2320 -271 l0 -170 -86 0 -87 0 6 108 c4 59 7 135 7 170 l0 62 80 0 80 0 0
-170z m1968 -177 l2 -173 -84 0 -85 0 -3 88 -3 87 -87 3 -88 3 0 79 0 79 93 4
c50 2 128 3 172 3 l80 -1 3 -172z m-2148 -88 l0 -85 -80 0 -80 0 0 85 0 85 80
0 80 0 0 -85z m2858 -2 l3 -83 -86 0 -85 0 0 78 c0 43 3 82 7 86 4 4 41 5 83
4 l75 -3 3 -82z m-3920 -175 l-3 -83 -82 -3 -83 -3 0 86 0 85 85 0 86 0 -3
-82z m887 -3 l0 -80 -82 -3 -83 -3 0 86 0 86 83 -3 82 -3 0 -80z m3207 -90 l0
-170 -79 0 -78 1 -3 172 -2 173 81 -3 81 -3 0 -170z m-4274 -266 l-3 -81 -80
0 -80 0 -3 81 -3 81 86 0 86 0 -3 -81z m4454 -3 l0 -79 -78 0 -79 1 -3 82 -3
81 82 -3 81 -3 0 -79z m-2 -353 l0 -83 -80 0 -80 0 0 78 c0 43 2 81 4 83 2 2
38 4 80 4 l76 0 0 -82z m180 -178 l0 -85 -80 0 -80 0 0 85 0 85 80 0 80 0 0
-85z"/>
<path d="M350 1875 l0 -84 -77 -3 -78 -3 -3 -172 -2 -172 87 -3 88 -3 3 -87 3
-87 87 -3 87 -3 3 -177 2 -178 75 0 75 0 0 530 0 530 -175 0 -175 0 0 -85z"/>
<path d="M1244 1597 c-3 -8 -4 -49 -2 -93 l3 -79 88 -3 87 -3 0 -83 0 -84 180
-7 c99 -4 261 -4 360 0 l179 7 3 87 3 86 78 1 c43 1 80 4 83 7 5 4 8 118 5
165 -1 9 -61 12 -266 12 l-265 0 0 -89 c0 -49 -4 -91 -10 -93 -5 -1 -46 -2
-90 0 l-80 4 0 89 0 89 -175 0 c-138 0 -177 -3 -181 -13z"/>
<path d="M3030 1515 l0 -95 85 0 85 0 0 -90 0 -90 223 0 c123 0 285 3 360 7
l137 6 0 83 0 83 88 3 87 3 3 93 3 92 -268 -2 -268 -3 -5 -89 -5 -88 -77 0
c-43 1 -82 1 -88 2 -6 0 -10 37 -10 90 l0 90 -175 0 -175 0 0 -95z"/>
<path d="M725 806 l0 -75 73 -3 c41 -2 76 -1 78 1 2 2 4 37 4 78 l0 73 -78 0
-78 0 1 -74z"/>
</g>
</svg>
